<?xml version="1.0" encoding="UTF-8" standalone="no"?><!DOCTYPE svg PUBLIC "-//W3C//DTD SVG 1.1//EN" "http://www.w3.org/Graphics/SVG/1.1/DTD/svg11.dtd"><svg width="100%" height="100%" viewBox="0 0 1638 199" version="1.1" xmlns="http://www.w3.org/2000/svg" xmlns:xlink="http://www.w3.org/1999/xlink" xml:space="preserve" xmlns:serif="http://www.serif.com/" style="fill-rule:evenodd;clip-rule:evenodd;stroke-linejoin:round;stroke-miterlimit:2;"><g><path d="M499.667,194.997l-35.135,0l0,-66.708c0,-12.986 -0.895,-22.003 -2.681,-27.052c-1.786,-5.05 -4.657,-8.975 -8.615,-11.775c-3.953,-2.801 -8.826,-4.202 -14.611,-4.202c-5.785,0 -10.697,1.379 -14.739,4.139c-4.042,2.756 -7.04,6.81 -8.997,12.156c-1.445,3.99 -2.171,12.518 -2.171,25.588l0,67.854l-31.538,0l0,-58.688c0,-24.187 1.91,-40.737 5.727,-49.648c4.669,-10.866 9.547,-18.865 18.628,-24.677c9.082,-5.812 19.404,-9.059 33.408,-9.059c15.192,0 27.475,3.394 36.853,10.185c9.378,6.789 15.978,16.249 19.795,28.387c2.716,8.403 4.075,23.681 4.075,45.83l0,57.669Z"/><path d="M166.854,3.183l34.754,0l0,110.571l51.177,-57.104l43.645,0l-59.668,66.385l66.803,72.122l-43.143,0l-58.814,-63.835l0,63.835l-28.657,0l-6.098,-191.974Z"/><path d="M314.018,56.651l34.754,0c-1.834,23.753 0,138.507 0,138.507l-34.754,0l0,-138.507Zm39.973,-34.567c0.002,6.094 -2.206,11.317 -6.616,15.677c-4.412,4.357 -9.58,3.933 -15.86,3.935c-6.196,0 -11.658,0.448 -16.029,-3.865c-4.373,-4.318 -6.559,-9.477 -6.559,-15.484c-0.002,-6.178 2.225,-11.448 6.68,-15.809c4.455,-4.357 9.866,-6.536 16.231,-6.538c6.11,0 11.329,2.155 15.659,6.468c4.33,4.318 6.495,9.52 6.495,15.616"/><path d="M785.575,101.44c-3.369,-7.318 -8.74,-12.893 -16.122,-16.721c-7.376,-3.83 -15.482,-5.11 -24.319,-3.842c-9.59,1.377 -17.622,5.274 -24.086,11.687c-4.062,4.013 -7.419,10.539 -10.074,19.579l74.6,-10.703Zm38.29,22.158l-110.515,15.856c2.994,9.518 8.37,16.655 16.126,21.413c7.756,4.762 17.011,6.369 27.764,4.828c12.854,-1.846 23.257,-7.923 31.209,-18.239l30.935,9.452c-5.754,11.286 -13.319,20.108 -22.695,26.469c-9.376,6.361 -20.995,10.537 -34.857,12.525c-21.505,3.085 -39.994,-1.185 -55.467,-12.813c-15.472,-11.625 -21.197,-28.867 -24.125,-49.281c-3.003,-20.917 -2.227,-38.035 9.273,-53.788c11.502,-15.753 27.416,-25.09 47.746,-28.006c21.592,-3.097 40.14,1.294 55.649,13.171c15.509,11.88 24.891,29.161 28.144,51.843l0.815,6.571Z"/><path d="M68.437,85.294c-10.747,0 -19.668,3.799 -26.774,11.393c-7.106,7.598 -10.658,17.336 -10.658,29.216c0,11.967 3.614,21.814 10.845,29.535c7.236,7.723 16.136,11.584 26.71,11.584c10.913,0 19.962,-3.797 27.152,-11.393c7.188,-7.594 10.786,-17.548 10.786,-29.852c0,-12.051 -3.597,-21.812 -10.786,-29.28c-7.19,-7.468 -16.282,-11.203 -27.276,-11.203m58.483,15.588c5.538,20.673 16.426,94.403 16.426,94.403l-34.754,0l0,-14.64c-6.783,6.452 -13.586,11.098 -20.409,13.94c-6.824,2.844 -14.222,4.264 -22.189,4.264c-17.888,0 -33.359,-6.937 -46.415,-20.814c-13.056,-13.875 -19.579,-31.126 -19.579,-51.749c0,-21.388 6.316,-38.911 18.947,-52.576c12.627,-13.665 27.971,-20.497 46.03,-20.497c8.308,0 16.511,1.404 23.8,4.542c7.291,3.14 15.183,7.18 21.341,13.492c5.984,6.135 13.844,18.596 16.802,29.635Z"/><path d="M591.63,85.294c-10.747,0 -19.668,3.799 -26.774,11.393c-7.106,7.598 -10.658,17.336 -10.658,29.216c0,11.967 3.614,21.814 10.845,29.535c7.236,7.723 16.136,11.584 26.71,11.584c10.913,0 19.962,-3.797 27.152,-11.393c7.188,-7.594 10.786,-17.548 10.786,-29.852c0,-12.051 -3.597,-21.812 -10.786,-29.28c-7.19,-7.468 -16.282,-11.203 -27.276,-11.203m58.483,15.588c5.538,20.673 16.426,94.403 16.426,94.403l-34.754,0l0,-14.64c-6.783,6.452 -13.586,11.098 -20.409,13.94c-6.824,2.844 -14.222,4.264 -22.189,4.264c-17.888,0 -33.359,-6.937 -46.415,-20.814c-13.056,-13.875 -19.579,-31.126 -19.579,-51.749c0,-21.388 6.316,-38.911 18.947,-52.576c12.627,-13.665 27.971,-20.497 46.03,-20.497c8.308,0 16.511,1.404 23.8,4.542c7.291,3.14 15.183,7.18 21.341,13.492c5.984,6.135 13.844,18.596 16.802,29.635Z"/></g><g><path d="M914.87,179.406l7.551,-8.332c5.034,5.728 10.242,9.895 15.623,12.499c5.381,2.604 11.197,3.906 17.446,3.906c8.68,0 15.753,-2.387 21.221,-7.161c5.468,-4.774 8.202,-11.24 8.202,-19.399c0,-5.555 -1.476,-10.415 -4.427,-14.582c-2.951,-4.166 -8.766,-8.593 -17.446,-13.28c-6.423,-3.645 -12.238,-6.987 -17.446,-10.025c-5.208,-3.038 -9.591,-6.249 -13.149,-9.634c-3.559,-3.385 -6.293,-7.074 -8.202,-11.066c-1.909,-3.993 -2.864,-8.68 -2.864,-14.061c0,-5.381 0.955,-10.198 2.864,-14.451c1.909,-4.253 4.557,-7.898 7.942,-10.936c3.385,-3.038 7.334,-5.381 11.848,-7.03c4.513,-1.649 9.374,-2.474 14.582,-2.474c7.117,0 13.627,1.432 19.529,4.296c5.902,2.864 11.717,7.074 17.446,12.629l-7.812,7.812c-4.513,-4.513 -9.157,-7.898 -13.931,-10.155c-4.774,-2.257 -9.938,-3.385 -15.493,-3.385c-7.812,0 -14.061,2.257 -18.748,6.77c-4.687,4.513 -7.03,9.981 -7.03,16.404c0,5.728 1.736,10.589 5.208,14.582c3.472,3.993 8.766,7.985 15.884,11.978c7.117,3.819 13.323,7.378 18.618,10.676c5.295,3.298 9.721,6.683 13.28,10.155c3.559,3.472 6.206,7.204 7.942,11.197c1.736,3.993 2.604,8.68 2.604,14.061c0,5.034 -0.868,9.851 -2.604,14.451c-1.736,4.6 -4.296,8.68 -7.681,12.238c-3.385,3.559 -7.551,6.379 -12.499,8.463c-4.947,2.083 -10.719,3.125 -17.316,3.125c-8.506,0 -16.274,-1.693 -23.305,-5.078c-7.03,-3.385 -12.976,-8.115 -17.836,-14.191Z" style="fill-rule:nonzero;"/><path d="M1016.421,57.024l26.82,0l0,-51.817l11.717,0l0,51.817l31.246,0l0,10.415l-31.246,0l0,127.849l-11.717,0l0,-127.849l-26.82,0l0,-10.415Z" style="fill-rule:nonzero;"/><path d="M1108.337,57.024l11.978,0l0,75.251c0,18.921 4.166,32.852 12.499,41.792c8.332,8.94 20.136,13.41 35.412,13.41c15.623,0 27.297,-4.644 35.022,-13.931c7.725,-9.287 11.587,-22.784 11.587,-40.49l0,-76.033l12.238,0l0,72.127c0,22.74 -4.947,40.013 -14.842,51.817c-9.895,11.804 -24.563,17.706 -44.005,17.706c-19.963,0 -34.935,-5.902 -44.917,-17.706c-9.981,-11.804 -14.972,-29.163 -14.972,-52.077l0,-71.866Z" style="fill-rule:nonzero;"/><path d="M1260.402,126.027c0,-9.547 1.736,-18.704 5.208,-27.471c3.472,-8.766 8.332,-16.491 14.582,-23.174c6.249,-6.683 13.757,-12.021 22.523,-16.014c8.766,-3.993 18.444,-5.989 29.033,-5.989c13.54,0 25.474,3.255 35.803,9.764c10.329,6.51 18.444,15.753 24.346,27.731l0,-87.229l11.717,0l0,191.644l-11.717,0l0,-32.288c-5.728,10.936 -13.714,19.572 -23.955,25.908c-10.242,6.336 -22.393,9.504 -36.454,9.504c-10.589,0 -20.223,-1.996 -28.903,-5.989c-8.68,-3.993 -16.144,-9.33 -22.393,-16.014c-6.249,-6.683 -11.11,-14.365 -14.582,-23.044c-3.472,-8.68 -5.208,-17.793 -5.208,-27.34Zm71.866,61.711c7.812,0 15.319,-1.302 22.523,-3.906c7.204,-2.604 13.627,-6.51 19.269,-11.717c5.642,-5.208 10.155,-11.587 13.54,-19.138c3.385,-7.551 5.078,-16.274 5.078,-26.169c0,-7.985 -1.345,-15.71 -4.036,-23.174c-2.691,-7.464 -6.64,-14.104 -11.848,-19.919c-5.208,-5.815 -11.544,-10.459 -19.008,-13.931c-7.464,-3.472 -15.97,-5.208 -25.518,-5.208c-9.027,0 -17.229,1.693 -24.606,5.078c-7.378,3.385 -13.67,7.942 -18.878,13.67c-5.208,5.728 -9.2,12.325 -11.978,19.789c-2.777,7.464 -4.166,15.189 -4.166,23.174c0,8.332 1.476,16.231 4.427,23.695c2.951,7.464 7.03,13.974 12.238,19.529c5.208,5.555 11.457,9.981 18.748,13.28c7.291,3.298 15.363,4.947 24.216,4.947Z" style="fill-rule:nonzero;"/><path d="M1446.578,195.289l0,-138.265l11.717,0l0,138.265l-11.717,0Zm-5.208,-178.104c0,-3.125 1.085,-5.728 3.255,-7.812c2.17,-2.083 4.73,-3.125 7.681,-3.125c2.951,0 5.511,1.042 7.681,3.125c2.17,2.083 3.255,4.687 3.255,7.812c0,2.951 -1.085,5.511 -3.255,7.681c-2.17,2.17 -4.73,3.255 -7.681,3.255c-3.125,0 -5.728,-1.085 -7.812,-3.255c-2.083,-2.17 -3.125,-4.73 -3.125,-7.681Z" style="fill-rule:nonzero;"/><path d="M1493.447,126.287c0,-9.721 1.736,-18.965 5.208,-27.731c3.472,-8.766 8.332,-16.491 14.582,-23.174c6.249,-6.683 13.8,-12.021 22.654,-16.014c8.853,-3.993 18.661,-5.989 29.424,-5.989c10.936,0 20.831,1.996 29.684,5.989c8.853,3.993 16.404,9.374 22.654,16.144c6.249,6.77 11.066,14.538 14.451,23.305c3.385,8.766 5.078,17.923 5.078,27.471c0,9.547 -1.693,18.704 -5.078,27.471c-3.385,8.766 -8.202,16.491 -14.451,23.174c-6.249,6.683 -13.8,12.021 -22.654,16.014c-8.853,3.993 -18.748,5.989 -29.684,5.989c-10.763,0 -20.57,-1.953 -29.424,-5.859c-8.853,-3.906 -16.404,-9.2 -22.654,-15.884c-6.249,-6.683 -11.11,-14.408 -14.582,-23.174c-3.472,-8.766 -5.208,-18.01 -5.208,-27.731Zm12.238,0.26c0,8.159 1.432,15.927 4.296,23.305c2.864,7.378 6.944,13.887 12.238,19.529c5.295,5.642 11.587,10.112 18.878,13.41c7.291,3.298 15.363,4.947 24.216,4.947c9.027,0 17.185,-1.649 24.476,-4.947c7.291,-3.298 13.54,-7.725 18.748,-13.28c5.208,-5.555 9.244,-12.021 12.108,-19.399c2.864,-7.378 4.296,-15.233 4.296,-23.565c0,-8.332 -1.476,-16.274 -4.427,-23.825c-2.951,-7.551 -7.03,-14.148 -12.238,-19.789c-5.208,-5.642 -11.457,-10.112 -18.748,-13.41c-7.291,-3.298 -15.363,-4.947 -24.216,-4.947c-8.68,0 -16.665,1.649 -23.955,4.947c-7.291,3.298 -13.583,7.812 -18.878,13.54c-5.295,5.728 -9.417,12.325 -12.368,19.789c-2.951,7.464 -4.427,15.363 -4.427,23.695Z" style="fill-rule:nonzero;"/></g></svg>